<svg xmlns="http://www.w3.org/2000/svg" width="46" height="46" viewBox="0 0 46 46">
  <g id="Group_59" data-name="Group 59" transform="translate(-1308 892)">
    <g id="Group_55" data-name="Group 55" transform="translate(-146 -34)">
      <g id="Group_54" data-name="Group 54">
        <path id="background" d="M10,0H36A10,10,0,0,1,46,10V36A10,10,0,0,1,36,46H10A10,10,0,0,1,0,36V10A10,10,0,0,1,10,0Z" transform="translate(1454 -858)" fill="#357ec1" style="isolation: isolate"/>
      </g>
    </g>
    <path id="Path_28" data-name="Path 28" d="M51,573a1,1,0,0,0-1,1v7a1,1,0,0,0,1,1H65a1,1,0,0,0,1-1v-7a1,1,0,0,0-1-1Zm-3,1a3,3,0,0,1,3-3H65a3,3,0,0,1,3,3v7a3,3,0,0,1-3,3H51a3,3,0,0,1-3-3Z" transform="translate(1273 -1442)" fill="#fff" fill-rule="evenodd"/>
    <path id="Path_29" data-name="Path 29" d="M58,564a4,4,0,0,0-4,4v4a1,1,0,0,1-2,0v-4a6,6,0,1,1,12,0v4a1,1,0,0,1-2,0v-4a4,4,0,0,0-4-4Z" transform="translate(1273 -1442)" fill="#fff" fill-rule="evenodd"/>
  </g>
</svg>
